<svg width="24" height="24" viewBox="0 0 24 24" fill="none" xmlns="http://www.w3.org/2000/svg">
<path d="M22.6504 21.1771L15.6941 14.2209C16.7736 12.8253 17.3575 11.1191 17.3575 9.32444C17.3575 7.17623 16.5191 5.16194 15.0031 3.64319C13.487 2.12444 11.4674 1.28873 9.32182 1.28873C7.17628 1.28873 5.15664 2.12712 3.64057 3.64319C2.12182 5.15926 1.2861 7.17623 1.2861 9.32444C1.2861 11.47 2.1245 13.4896 3.64057 15.0057C5.15664 16.5244 7.1736 17.3602 9.32182 17.3602C11.1165 17.3602 12.82 16.7762 14.2156 15.6994L21.1718 22.653C21.1922 22.6734 21.2164 22.6896 21.2431 22.7007C21.2697 22.7117 21.2983 22.7174 21.3272 22.7174C21.356 22.7174 21.3846 22.7117 21.4113 22.7007C21.4379 22.6896 21.4621 22.6734 21.4825 22.653L22.6504 21.4878C22.6708 21.4674 22.687 21.4432 22.698 21.4166C22.7091 21.3899 22.7148 21.3613 22.7148 21.3325C22.7148 21.3036 22.7091 21.2751 22.698 21.2484C22.687 21.2217 22.6708 21.1975 22.6504 21.1771ZM13.5647 13.5673C12.429 14.7003 10.9236 15.3244 9.32182 15.3244C7.72003 15.3244 6.21467 14.7003 5.07896 13.5673C3.94592 12.4316 3.32182 10.9262 3.32182 9.32444C3.32182 7.72266 3.94592 6.21462 5.07896 5.08158C6.21467 3.94855 7.72003 3.32444 9.32182 3.32444C10.9236 3.32444 12.4316 3.94587 13.5647 5.08158C14.6977 6.2173 15.3218 7.72266 15.3218 9.32444C15.3218 10.9262 14.6977 12.4343 13.5647 13.5673Z" fill="black"/>
</svg>
